<?xml version="1.0" standalone="no"?>
<!DOCTYPE svg PUBLIC "-//W3C//DTD SVG 20010904//EN"
 "http://www.w3.org/TR/2001/REC-SVG-20010904/DTD/svg10.dtd">
<svg version="1.0" xmlns="http://www.w3.org/2000/svg"
 width="480.000000pt" height="480.000000pt" viewBox="0 0 480.000000 480.000000"
 preserveAspectRatio="xMidYMid meet">

<g transform="translate(0.000000,480.000000) scale(0.100000,-0.100000)"
fill="#000000" stroke="none">
<path d="M2313 4713 c-16 -6 -5 -33 13 -33 8 0 14 3 14 8 0 15 -15 29 -27 25z"/>
<path d="M2390 4605 c0 -37 4 -47 25 -61 17 -11 36 -14 55 -10 29 5 30 4 30
-29 0 -24 5 -35 15 -35 12 0 15 17 15 90 0 73 -3 90 -15 90 -11 0 -15 -12 -15
-45 0 -44 -1 -45 -33 -45 -42 0 -57 15 -57 57 0 18 -4 33 -10 33 -5 0 -10 -20
-10 -45z"/>
<path d="M2221 4606 c4 -42 4 -42 -43 -49 -36 -5 -37 -5 -40 30 -5 55 -28 55
-28 0 0 -80 12 -137 28 -137 11 0 13 8 8 40 l-6 40 35 0 c19 0 38 0 43 1 4 0
12 -18 17 -40 7 -30 14 -38 23 -32 11 6 11 23 3 85 -6 43 -11 82 -11 87 0 5
-7 9 -16 9 -12 0 -15 -8 -13 -34z"/>
<path d="M2310 4603 c0 -81 12 -143 28 -143 11 0 13 8 8 38 -3 20 -6 61 -6 90
0 39 -4 52 -15 52 -11 0 -15 -11 -15 -37z"/>
<path d="M2597 4618 c-3 -13 -9 -53 -12 -90 -6 -57 -5 -68 8 -68 9 0 17 13 21
35 7 33 9 35 46 35 40 0 40 0 40 -40 0 -58 26 -54 34 5 3 25 9 65 12 90 5 36
3 45 -9 45 -9 0 -19 -15 -24 -37 -8 -34 -12 -38 -39 -35 -52 5 -57 9 -50 47 5
27 4 35 -7 35 -8 0 -17 -10 -20 -22z"/>
<path d="M2016 4605 c-8 -8 -18 -24 -21 -35 -8 -26 -17 -25 -44 4 -13 14 -30
22 -38 19 -11 -4 -5 -15 23 -44 l38 -39 -21 -50 c-17 -40 -18 -50 -7 -50 8 0
21 18 30 40 9 22 19 40 23 40 4 0 18 -11 31 -25 22 -23 60 -35 60 -17 0 4 -18
20 -40 36 -22 17 -40 34 -40 38 0 5 9 26 20 48 11 22 20 42 20 45 0 10 -19 5
-34 -10z"/>
<path d="M3070 4608 c0 -9 6 -21 14 -27 18 -15 68 -10 74 7 3 9 -3 11 -22 6
-19 -4 -33 -1 -46 11 -17 15 -20 16 -20 3z"/>
<path d="M2794 4533 c-9 -43 -19 -81 -21 -86 -2 -4 4 -10 13 -14 13 -5 32 9
72 53 l54 59 -7 -40 c-4 -22 -9 -52 -12 -67 -4 -21 -2 -28 10 -28 10 0 20 21
31 71 9 39 16 77 16 85 0 32 -26 22 -80 -31 l-59 -58 14 59 c18 74 18 74 1 74
-10 0 -20 -25 -32 -77z"/>
<path d="M1763 4550 c-31 -18 -33 -24 -33 -73 0 -43 5 -58 23 -75 47 -45 147
-19 147 38 0 28 -18 25 -32 -5 -13 -30 -48 -41 -77 -25 -36 19 -24 36 39 55
68 21 73 33 31 76 -35 34 -54 36 -98 9z m75 -22 c20 -20 14 -35 -15 -42 -16
-3 -38 -8 -50 -12 -30 -8 -31 18 -3 46 23 23 50 26 68 8z"/>
<path d="M2991 4488 c-11 -40 -21 -79 -21 -85 0 -25 34 -12 86 32 28 25 55 45
58 45 3 0 -4 -25 -14 -56 -19 -54 -19 -74 0 -74 4 0 18 31 29 70 12 38 24 76
27 85 4 8 -1 17 -10 21 -10 4 -36 -12 -73 -44 -32 -28 -59 -50 -60 -48 -1 1 4
24 12 51 19 60 19 75 1 75 -8 0 -22 -29 -35 -72z"/>
<path d="M1605 4496 c-68 -27 -88 -51 -32 -41 l34 7 23 -66 c13 -36 30 -66 37
-66 18 0 17 12 -12 76 -14 31 -25 60 -25 65 0 5 11 11 25 15 14 3 25 12 25 20
0 18 -3 17 -75 -10z"/>
<path d="M3297 4369 c-7 -99 -15 -116 -53 -121 -33 -4 -31 -22 2 -26 22 -3 42
11 115 84 59 59 85 92 79 98 -7 7 -29 -8 -66 -44 l-56 -55 7 78 c6 64 5 77 -7
77 -12 0 -16 -21 -21 -91z"/>
<path d="M1325 4430 c-4 -14 -15 -20 -36 -20 -33 0 -39 -15 -9 -25 29 -9 60
12 60 40 0 30 -6 32 -15 5z"/>
<path d="M1377 4392 c-3 -4 -9 -43 -13 -86 l-7 -78 -30 56 c-16 31 -36 56 -43
56 -21 0 -17 -15 27 -95 34 -64 43 -73 58 -65 14 7 18 24 20 82 1 40 4 74 6
76 1 2 17 -22 35 -53 22 -38 36 -53 42 -47 7 7 -2 34 -29 83 -37 70 -55 89
-66 71z"/>
<path d="M3451 4301 c-22 -38 -41 -74 -41 -80 0 -25 20 -18 40 14 l21 34 35
-16 c40 -19 41 -25 14 -68 -19 -31 -19 -33 -3 -39 10 -4 19 -3 20 1 2 5 21 39
43 77 22 38 40 72 40 77 0 17 -21 9 -44 -17 -22 -26 -23 -26 -54 -10 -37 19
-37 19 -16 51 15 23 12 45 -5 45 -5 0 -27 -31 -50 -69z"/>
<path d="M3696 4311 c-3 -5 1 -14 8 -20 16 -13 32 2 21 19 -8 12 -22 13 -29 1z"/>
<path d="M1196 4293 c-3 -3 -6 -43 -6 -87 l-1 -81 -22 30 c-44 59 -64 78 -70
68 -9 -14 91 -155 106 -150 8 2 11 30 9 88 l-3 84 38 -57 c28 -41 42 -55 53
-48 10 6 3 24 -36 80 -52 77 -58 83 -68 73z"/>
<path d="M3620 4195 c-27 -42 -50 -78 -50 -81 0 -2 6 -4 14 -4 14 0 106 120
106 139 0 32 -25 12 -70 -54z"/>
<path d="M2195 4195 c-44 -7 -91 -15 -105 -18 -14 -3 -56 -13 -93 -22 -237
-56 -479 -172 -677 -323 -86 -65 -275 -250 -343 -335 -205 -255 -340 -573
-383 -902 -12 -93 -12 -331 0 -400 2 -16 7 -55 11 -85 13 -117 64 -303 125
-455 106 -269 322 -557 560 -748 336 -269 797 -422 1220 -403 219 9 301 23
520 87 170 50 408 176 570 302 495 383 775 1035 706 1646 -27 245 -77 419
-182 636 -187 390 -541 721 -950 891 -154 63 -327 110 -499 133 -103 14 -377
12 -480 -4z m559 -100 c200 -39 316 -78 501 -170 177 -88 323 -193 464 -335
87 -87 206 -234 219 -270 3 -8 16 -28 29 -44 56 -68 177 -353 211 -496 57
-238 66 -496 26 -720 -45 -258 -204 -600 -382 -820 -186 -231 -441 -414 -733
-528 -215 -83 -383 -113 -639 -113 -282 0 -504 49 -755 167 -69 32 -236 127
-262 148 -10 8 -46 36 -80 61 -187 139 -401 407 -506 635 -112 242 -167 497
-167 769 0 359 104 691 304 974 77 108 243 285 346 369 255 208 603 351 945
388 112 12 385 4 479 -15z"/>
<path d="M2271 4089 c-326 -37 -649 -167 -901 -363 -443 -344 -690 -848 -674
-1372 8 -241 41 -406 126 -629 140 -365 445 -713 780 -889 136 -72 166 -86
181 -86 7 0 17 -4 23 -9 12 -12 141 -55 240 -80 139 -34 247 -44 454 -38 198
5 200 5 460 66 134 32 389 157 511 251 220 169 313 268 445 470 169 260 258
519 283 820 10 128 10 146 -3 285 -31 350 -168 686 -385 945 -168 200 -374
360 -601 465 -41 20 -83 40 -92 45 -10 6 -24 10 -31 10 -7 0 -31 8 -53 19
-152 72 -531 117 -763 90z m424 -24 c168 -25 252 -48 399 -105 210 -82 392
-201 569 -369 287 -276 463 -627 513 -1030 42 -341 -18 -666 -182 -986 -167
-328 -428 -591 -740 -749 -93 -46 -228 -103 -279 -117 -230 -61 -318 -73 -530
-73 -330 1 -570 66 -880 238 -200 112 -457 366 -593 588 -96 157 -188 391
-222 563 -124 647 95 1257 600 1666 191 155 501 307 715 351 191 39 457 49
630 23z"/>
<path d="M2286 3932 c-2 -4 28 -6 67 -4 111 5 121 9 25 11 -48 0 -89 -3 -92
-7z"/>
<path d="M2545 3930 c158 -14 197 -21 192 -35 -3 -7 0 -18 6 -24 18 -18 0 -24
-39 -11 -28 10 -39 10 -42 1 -2 -6 -21 -11 -42 -11 -30 0 -48 -8 -75 -31 l-36
-32 -23 22 c-12 11 -26 21 -30 21 -8 0 -85 -62 -140 -112 -47 -43 -72 -53 -98
-40 -22 10 -22 11 6 11 34 1 67 27 59 47 -4 10 3 14 26 14 26 0 31 4 31 24 0
13 10 31 23 39 19 14 20 18 7 26 -8 6 -25 11 -36 11 -12 0 -29 11 -38 25 -19
29 -38 27 -126 -13 -30 -15 -59 -28 -65 -30 -5 -2 8 12 30 31 l40 36 -28 10
c-58 22 -106 5 -151 -53 -36 -48 -50 -46 -41 4 5 29 3 40 -6 40 -26 0 -120
-52 -135 -75 -8 -13 -29 -28 -46 -34 -17 -6 -29 -14 -25 -17 3 -3 14 -1 25 5
28 15 32 14 32 -8 0 -10 9 -30 20 -44 15 -19 17 -27 7 -34 -18 -14 -90 -33
-125 -33 -17 0 -34 -5 -38 -11 -4 -7 -43 -9 -122 -5 -126 7 -135 4 -125 -46 7
-38 -4 -78 -23 -78 -9 0 -12 5 -8 13 4 6 -15 -8 -43 -33 -28 -25 -54 -52 -57
-60 -4 -8 13 5 38 29 25 25 49 42 52 38 8 -7 -37 -77 -49 -77 -5 0 -7 -10 -6
-22 3 -25 -6 -60 -23 -96 -9 -17 -9 -25 0 -34 22 -22 12 -28 -36 -22 -68 8
-91 22 -104 66 -12 42 -28 51 -28 16 0 -25 -33 -102 -53 -127 -7 -8 -12 -31
-12 -52 0 -43 -17 -53 -26 -17 -7 25 -12 17 -24 -36 -3 -16 -14 -30 -25 -33
-11 -3 -17 -9 -14 -15 3 -5 -4 -29 -16 -54 -11 -25 -18 -53 -16 -62 3 -9 -1
-39 -9 -66 -18 -58 -13 -75 5 -20 12 35 14 36 26 19 8 -10 14 -27 14 -36 0 -9
14 -29 31 -44 34 -28 71 -28 116 1 12 8 24 14 27 14 2 0 -7 -26 -20 -57 -13
-32 -24 -68 -24 -80 0 -28 -16 -30 -32 -4 -9 14 -16 17 -24 10 -9 -7 -21 -5
-39 7 -19 12 -37 15 -70 11 -42 -6 -44 -5 -48 21 -4 26 -4 26 -6 -4 0 -19 6
-37 15 -45 15 -12 13 -15 -17 -23 -19 -5 -58 -9 -86 -9 -57 0 -64 -8 -33 -34
12 -11 20 -30 20 -50 0 -26 5 -34 25 -39 13 -3 30 -13 37 -22 12 -14 9 -15
-24 -9 -22 3 -38 2 -38 -4 0 -15 38 -87 50 -94 5 -3 10 -32 10 -63 0 -31 5
-64 10 -72 7 -12 9 -10 8 10 -2 49 2 53 23 26 11 -14 19 -34 16 -44 -2 -9 7
-31 20 -49 14 -19 19 -33 12 -35 -18 -6 18 -67 50 -85 15 -9 35 -34 46 -57 11
-23 25 -45 32 -49 7 -4 13 -15 13 -23 0 -12 10 -15 43 -12 l42 3 -3 -35 c-2
-23 -12 -44 -31 -60 -41 -37 -63 -92 -55 -137 7 -38 7 -38 -14 -20 -13 12 -22
15 -27 8 -3 -6 -3 -11 2 -11 4 0 2 -4 -6 -9 -9 -6 -10 -14 -3 -27 5 -11 13
-43 17 -72 6 -49 10 -55 40 -68 21 -8 48 -35 72 -69 21 -30 41 -55 45 -55 4 0
-10 24 -32 53 -22 28 -40 58 -40 65 0 17 19 15 26 -3 7 -18 64 -37 101 -33 22
2 29 -1 31 -18 2 -12 17 -35 35 -52 26 -25 42 -31 82 -34 45 -3 50 -6 53 -28
2 -13 13 -30 23 -38 11 -8 19 -25 19 -41 0 -16 9 -40 20 -54 11 -14 20 -34 20
-45 0 -24 23 -44 47 -42 10 1 27 2 38 1 19 -1 18 -3 -5 -21 -14 -11 -20 -20
-14 -20 6 0 22 -10 35 -23 29 -28 99 -57 138 -57 39 0 55 22 47 65 -8 40 -16
43 -41 15 -10 -11 -23 -20 -28 -20 -6 0 -2 9 7 19 22 24 13 41 -22 41 -15 0
-36 7 -46 15 -18 14 -15 15 35 15 l54 1 -55 49 c-30 27 -52 50 -48 50 3 0 43
-25 87 -56 75 -51 97 -74 70 -74 -6 0 -9 -6 -7 -12 3 -8 19 -11 44 -10 43 3
94 -12 94 -28 0 -13 -57 -13 -65 0 -4 6 -11 7 -17 4 -12 -8 68 -84 88 -84 6 0
19 -11 28 -25 9 -14 14 -25 11 -25 -3 0 -1 -9 5 -20 9 -17 21 -20 74 -20 71 0
96 17 96 65 l0 29 33 -36 c31 -34 36 -36 78 -31 24 3 48 9 54 14 18 17 52 9
65 -16 16 -31 24 -31 44 -3 12 17 28 22 67 25 29 2 59 9 68 17 20 16 81 29 81
16 0 -5 10 -18 22 -30 25 -23 103 -29 110 -8 3 9 10 8 23 -5 12 -12 29 -17 54
-15 31 3 36 6 33 26 -3 21 -2 22 17 10 17 -11 23 -10 37 4 13 12 23 14 41 7
24 -9 43 -5 43 9 0 4 -14 13 -31 21 -30 13 -55 53 -37 60 5 1 25 -13 44 -33
19 -20 40 -36 47 -37 7 0 23 -2 37 -4 42 -5 71 5 65 24 -4 14 2 17 37 16 24 0
45 -3 48 -7 3 -4 21 3 40 15 34 21 34 21 9 27 -29 7 -32 33 -5 38 33 7 74 56
81 98 9 47 37 98 81 143 19 19 52 62 75 97 25 39 48 64 59 64 10 0 29 13 42
28 13 16 35 32 49 35 33 8 73 43 64 56 -3 6 -2 11 4 11 15 0 75 91 65 99 -5 3
-15 18 -21 33 -16 36 -4 69 38 99 32 22 32 22 9 31 -14 5 -27 5 -34 -2 -17
-17 -41 -11 -65 14 l-23 25 28 28 c16 16 27 37 26 48 -2 16 6 24 32 33 44 16
66 37 66 63 0 15 -7 19 -32 19 -29 0 -30 -1 -15 -18 23 -26 4 -42 -50 -42
l-43 0 0 -39 c0 -26 -5 -41 -16 -45 -25 -10 -27 -8 -20 24 7 40 1 38 -20 -5
-9 -19 -20 -35 -24 -35 -15 0 -21 38 -9 58 14 22 6 58 -20 92 l-19 24 -16 -34
-16 -35 6 49 c3 27 10 60 15 74 l9 24 36 -32 37 -32 106 7 c109 7 121 11 180
64 24 22 32 37 28 51 -4 14 6 36 30 66 35 47 38 71 4 40 -13 -12 -27 -15 -41
-11 -25 8 -21 28 6 34 10 1 27 10 37 19 28 25 20 92 -12 92 -11 0 -6 8 16 26
32 24 89 124 72 124 -5 0 -13 -9 -19 -19 -10 -20 -41 -22 -48 -3 -2 7 -10 12
-17 12 -8 0 -18 18 -24 43 l-10 42 5 -47 c4 -38 2 -48 -9 -48 -8 0 -18 7 -21
16 -5 13 -15 15 -56 9 -41 -6 -50 -4 -50 8 0 24 -19 31 -39 13 -26 -24 -31
-20 -31 22 0 37 -11 91 -25 125 -6 15 -1 17 37 17 50 0 81 25 93 73 7 27 25
38 25 15 0 -6 3 -8 6 -5 4 4 1 13 -6 22 -8 10 -10 27 -5 52 6 33 5 35 -9 23
-15 -11 -16 -9 -14 16 4 61 -1 86 -17 80 -9 -3 -15 0 -15 8 0 17 -39 65 -40
49 0 -6 -20 -25 -45 -42 -25 -17 -45 -27 -45 -23 0 4 18 27 40 52 22 26 35 49
30 54 -4 4 -6 15 -3 22 4 10 -3 14 -21 14 -31 0 -44 36 -26 70 9 17 9 25 -4
39 -9 10 -16 23 -16 30 0 7 -13 -1 -29 -18 l-30 -32 -40 28 c-41 28 -65 73
-43 81 16 5 -26 59 -65 83 -29 18 -33 26 -33 63 l0 42 -47 1 c-28 0 -62 8 -80
19 -124 74 -197 114 -200 110 -3 -2 27 -21 66 -43 39 -21 71 -42 71 -47 0 -4
-6 -6 -14 -3 -7 3 -55 8 -107 12 -52 3 -105 8 -118 11 l-24 5 27 28 c14 15 26
36 26 48 0 25 -40 66 -92 95 -21 12 -38 28 -38 35 0 16 -16 17 -25 2 -5 -6
-13 -3 -22 10 -8 12 -18 21 -24 21 -12 0 -12 -87 1 -95 6 -3 10 -13 10 -22 0
-10 -17 0 -50 31 -29 27 -58 46 -73 46 -12 0 -27 4 -32 9 -16 13 -148 31 -222
30 l-68 -2 80 -7z m-315 -139 c-13 -11 -36 -22 -50 -24 -14 -3 -43 -18 -65
-33 -59 -40 -165 -69 -165 -45 0 6 21 13 48 17 49 7 108 31 98 41 -3 3 -12 0
-21 -7 -24 -20 -28 -6 -4 15 16 15 22 16 28 6 7 -10 15 -9 42 5 73 39 128 54
89 25z m554 -15 c54 -13 103 -29 110 -36 8 -9 4 -10 -17 -5 -15 4 -40 2 -55
-4 -29 -12 -122 -31 -122 -25 0 2 16 12 36 22 l37 19 -47 14 c-26 8 -52 19
-58 26 -15 18 1 17 116 -11z m-790 -30 c-10 -20 -21 -36 -26 -36 -12 0 -10 5
13 45 27 45 36 39 13 -9z m604 12 c-6 -18 -22 -20 -43 -3 -19 14 -18 14 13 15
22 0 32 -4 30 -12z m-158 -22 c0 -17 -19 -39 -72 -82 -40 -32 -82 -66 -92 -76
-12 -11 -36 -18 -60 -19 -23 0 -67 -1 -99 -2 -32 -2 -61 1 -64 6 -9 14 19 28
46 23 25 -4 71 12 71 25 0 4 7 10 16 13 14 5 15 4 4 -9 -11 -13 -8 -15 17 -15
28 0 49 13 108 62 39 33 120 97 123 98 1 0 2 -11 2 -24z m75 -26 c3 -5 15 -15
25 -20 16 -9 18 -8 13 7 -6 16 -5 16 17 0 14 -9 34 -17 47 -17 12 0 29 -10 37
-22 25 -35 19 -46 -9 -15 -26 27 -69 38 -59 15 15 -35 67 -61 128 -65 96 -5
97 -5 120 16 26 25 40 27 32 6 -13 -35 83 -48 111 -15 15 17 30 20 92 20 67 0
74 -2 60 -15 -11 -11 -22 -13 -47 -5 -36 10 -75 0 -89 -22 -4 -7 -21 -18 -38
-23 -20 -7 -36 -23 -48 -47 -13 -26 -28 -40 -52 -48 -35 -12 -62 -36 -51 -47
3 -3 23 -1 43 5 21 6 49 14 61 18 14 3 30 20 38 40 8 19 20 34 27 34 7 0 28
16 45 36 30 33 34 35 77 28 39 -5 51 -3 85 20 44 29 70 35 51 12 -9 -11 -1
-14 41 -20 29 -3 79 -6 112 -6 51 0 57 -2 46 -15 -10 -12 -46 -15 -201 -15
-104 0 -189 -2 -189 -4 0 -2 -3 -11 -6 -20 -5 -14 13 -16 166 -16 151 0 171
-2 160 -15 -9 -10 -13 -99 -15 -322 l-3 -308 9 285 c5 157 14 296 19 310 7 17
8 -28 5 -140 -3 -91 -7 -388 -10 -660 -9 -848 -14 -975 -40 -1046 -31 -82 -62
-130 -121 -185 -53 -49 -178 -116 -241 -130 -21 -4 -85 -24 -142 -43 -57 -20
-111 -36 -121 -36 -9 0 -55 -19 -101 -42 -46 -23 -91 -41 -99 -39 -8 2 -12 -1
-7 -5 9 -9 -23 -45 -34 -38 -5 3 -9 245 -9 538 0 506 1 534 19 550 17 16 18
14 24 -41 3 -32 4 -114 2 -183 -2 -69 -1 -117 1 -107 9 29 31 19 54 -25 29
-57 52 -81 106 -108 24 -13 44 -30 44 -38 0 -24 31 -52 56 -52 13 0 29 -8 36
-18 7 -11 37 -45 66 -77 53 -59 62 -81 40 -103 -23 -23 -46 -11 -106 54 -61
67 -61 67 -87 50 -14 -9 -25 -22 -25 -29 0 -7 35 -48 78 -90 65 -65 86 -79
118 -84 33 -4 43 -1 67 22 15 15 32 46 39 67 13 45 2 75 -53 138 -107 122
-101 114 -88 143 10 22 9 31 -5 52 -9 14 -23 25 -31 25 -25 0 -17 19 12 26 21
6 31 2 50 -22 41 -51 56 -64 74 -64 10 0 45 -33 78 -72 55 -66 60 -77 59 -116
-1 -23 3 -47 8 -52 12 -12 167 137 161 154 -2 6 -27 13 -55 16 -49 5 -54 8
-111 75 -46 54 -57 74 -50 87 15 28 10 48 -15 58 -33 12 -39 38 -31 139 7 94
-5 159 -34 185 -48 42 -95 58 -166 55 -96 -3 -137 0 -155 11 -12 8 -13 11 -1
19 9 6 6 8 -13 9 -18 0 -38 -14 -67 -45 -22 -24 -43 -42 -47 -39 -3 4 13 26
36 49 23 24 42 46 42 50 0 5 -27 -20 -61 -54 l-60 -61 -27 23 c-15 13 -29 26
-32 29 -43 43 -94 80 -108 79 -13 0 -11 -3 6 -10 38 -15 16 -26 -40 -21 -30 2
-49 1 -45 -4 8 -9 12 -10 55 -12 12 -1 25 -9 28 -17 9 -21 -23 -48 -48 -41
-29 7 -48 -10 -48 -45 0 -22 -6 -32 -25 -39 -15 -6 -27 -21 -33 -42 -10 -39
-21 -39 -106 3 -33 16 -61 28 -61 26 -1 -1 -24 -42 -50 -92 -55 -104 -119
-197 -164 -240 -49 -48 -124 -136 -119 -141 14 -14 277 188 336 258 25 29 50
36 69 17 12 -12 -43 -120 -96 -189 -14 -19 -35 -48 -46 -66 -11 -17 -33 -50
-49 -73 -62 -89 -8 -49 136 98 139 142 151 152 166 137 12 -11 14 -20 7 -29
-6 -8 -32 -47 -59 -88 -26 -41 -56 -85 -66 -99 -15 -22 -76 -153 -101 -217
-15 -41 7 -24 53 40 67 93 211 251 278 305 32 26 59 53 59 61 1 7 -13 33 -29
58 -60 89 -85 151 -56 140 23 -9 45 24 39 57 -5 27 -4 29 18 23 31 -8 61 18
53 47 -3 15 3 31 21 50 29 31 30 28 -27 63 -31 19 -36 33 -13 33 9 0 29 -14
45 -30 l30 -31 -1 -317 c0 -186 -4 -309 -9 -297 -5 13 -9 -29 -9 -113 -1 -86
3 -131 9 -127 15 9 13 -168 -2 -183 -9 -9 -9 -12 0 -12 7 0 12 -7 12 -15 0
-21 -27 -19 -61 6 -16 11 -57 33 -93 49 -60 27 -104 40 -251 71 -33 7 -85 24
-115 38 -30 14 -65 27 -77 28 -31 3 -100 52 -151 107 -41 44 -92 135 -92 164
0 29 -16 8 -27 -35 -11 -46 -10 -50 22 -98 37 -56 110 -134 128 -136 7 -1 17
-1 24 0 6 1 14 -3 18 -9 3 -5 15 -10 26 -10 26 0 144 -77 127 -82 -10 -4 -11
-8 -1 -20 7 -8 11 -17 8 -20 -3 -3 23 -11 57 -18 91 -19 230 -66 285 -96 58
-32 143 -95 143 -106 0 -19 -27 -5 -66 33 -38 37 -43 39 -68 28 -24 -11 -29
-10 -59 19 -18 18 -40 32 -49 32 -10 0 -21 8 -26 17 -8 13 -26 17 -88 18 -44
0 -82 -3 -85 -9 -10 -13 -39 1 -39 19 0 30 -102 151 -119 141 -6 -4 -25 0 -43
8 -18 8 -55 17 -82 20 l-48 6 7 -38 c6 -33 5 -35 -9 -22 -8 8 -18 35 -22 60
-6 39 -5 43 7 28 11 -13 21 -16 42 -10 l27 7 -38 40 c-20 22 -51 61 -67 87
-33 52 -44 58 -52 28 -3 -11 -10 -20 -15 -20 -5 0 6 -22 25 -49 l35 -49 -50
14 c-68 17 -138 93 -124 131 6 14 8 14 25 -1 38 -34 104 -2 117 58 3 17 15 40
25 51 27 30 35 78 15 94 -9 8 -16 17 -16 22 0 4 -5 20 -10 34 l-10 27 -35 -22
c-19 -12 -39 -19 -44 -15 -13 7 4 53 29 80 35 38 26 110 -17 138 -6 4 -17 23
-23 42 -12 35 -30 48 -30 20 0 -8 -9 -19 -20 -25 -23 -12 -22 -14 -40 68 -7
29 -23 68 -36 88 -41 59 -30 85 31 77 37 -4 56 10 84 65 27 53 21 101 -20 154
-18 22 -29 49 -29 67 0 22 -5 31 -16 31 -24 0 -43 30 -44 68 0 28 4 33 30 39
34 6 39 18 13 28 -16 6 -16 8 3 23 12 9 24 29 28 45 3 15 9 39 12 55 4 15 15
36 25 47 10 11 22 33 28 48 13 33 15 87 4 87 -5 0 -8 20 -8 44 0 29 -6 51 -19
65 -26 28 -31 27 -56 -14 -12 -19 -26 -35 -31 -35 -6 0 -7 5 -3 12 14 23 22
92 13 117 -6 16 -6 35 1 54 7 22 7 34 -1 44 -9 11 -7 19 11 38 15 16 21 31 17
45 -6 24 20 96 31 85 4 -4 5 -75 4 -158 l-4 -152 31 -23 31 -23 0 232 c0 128
3 229 7 225 4 -4 6 -359 4 -789 -3 -767 -2 -783 17 -807 20 -24 20 -23 23 746
3 627 7 774 18 787 11 14 40 17 179 19 150 3 167 5 170 21 3 16 -11 17 -190
17 -188 0 -218 4 -218 32 0 13 357 10 401 -3 40 -13 53 -39 35 -71 -17 -29 8
-68 44 -68 l31 0 -20 -29 c-26 -36 -26 -47 -1 -54 16 -4 29 6 55 40 19 25 35
49 35 53 0 11 -30 21 -41 14 -5 -3 -19 -2 -31 2 l-21 6 24 19 c13 10 18 19 12
19 -7 0 -13 6 -13 14 0 16 -54 59 -84 66 -12 4 -22 15 -24 28 -3 18 -8 21 -28
16 -34 -9 -30 2 8 20 38 19 48 20 48 3 0 -7 8 -20 18 -29 9 -10 26 -26 36 -38
11 -11 34 -25 53 -32 18 -7 33 -17 33 -24 0 -17 32 -22 141 -23 l96 -2 78 71
c43 39 80 68 84 64 3 -3 -2 -11 -12 -18 -9 -7 -17 -20 -17 -29 0 -8 -6 -17
-12 -20 -9 -3 -12 -25 -10 -76 2 -40 8 -69 13 -65 5 3 9 0 9 -5 0 -6 -5 -11
-12 -11 -8 0 -9 -31 -5 -114 6 -93 4 -116 -8 -126 -12 -10 -17 -5 -31 29 -23
58 -53 56 -82 -4 -27 -56 -51 -58 -88 -10 -14 19 -31 35 -37 35 -24 0 -47 -34
-47 -70 0 -49 -17 -54 -58 -20 -57 47 -104 16 -87 -60 4 -18 1 -31 -9 -39 -12
-10 -21 -8 -49 13 -42 32 -62 33 -82 2 -15 -22 -14 -27 5 -61 28 -51 15 -62
-44 -40 -37 14 -49 15 -61 5 -24 -20 -18 -51 16 -86 27 -28 29 -34 18 -52 -10
-16 -22 -19 -63 -18 -44 1 -51 -2 -63 -24 -11 -23 -9 -28 27 -65 31 -32 38
-45 33 -67 -5 -25 -9 -28 -49 -28 -33 0 -46 -5 -54 -19 -17 -33 -12 -45 35
-73 65 -40 60 -58 -15 -58 l-60 0 0 357 c0 196 -3 354 -6 351 -7 -8 -8 -1238
0 -1245 3 -4 6 68 6 159 0 124 3 168 13 171 9 4 9 7 -1 15 -9 6 -12 33 -11 94
l3 85 129 1 c130 1 141 3 142 25 3 49 20 109 36 123 24 22 66 22 110 2 19 -9
70 -31 114 -48 96 -40 107 -47 103 -73 -3 -19 2 -21 52 -20 86 2 84 2 72 16
-7 8 -7 17 1 28 19 24 65 51 77 44 13 -8 14 99 0 123 -5 9 -33 79 -60 155 -40
107 -49 142 -40 152 15 18 77 38 95 31 9 -3 15 3 18 17 2 12 5 -34 6 -103 1
-89 -3 -130 -11 -139 -10 -11 -10 -14 0 -18 14 -6 16 -43 2 -43 -5 0 -10 -9
-10 -19 0 -11 5 -23 10 -26 6 -3 10 -36 10 -73 l0 -67 -56 -57 c-31 -32 -52
-58 -47 -58 5 0 33 25 63 55 30 30 58 55 63 55 4 0 35 -22 68 -50 69 -58 91
-66 37 -14 -36 33 -49 64 -29 64 5 0 23 -16 40 -35 28 -33 35 -35 82 -34 45 2
48 4 29 14 -21 11 -20 13 41 91 35 43 78 96 96 117 24 27 32 44 28 58 -5 15
-2 19 17 19 13 -1 34 -7 48 -15 14 -8 35 -14 47 -15 14 0 36 -20 67 -60 25
-33 46 -64 46 -69 0 -4 9 -16 19 -26 19 -17 21 -16 53 30 18 26 68 93 110 148
l77 102 -109 27 c-60 14 -122 35 -137 46 -16 10 -34 17 -41 14 -11 -3 -12 0
-3 16 6 11 11 23 11 26 0 3 -27 24 -61 47 -44 30 -64 38 -72 30 -8 -8 -15 -7
-27 4 -15 14 -23 8 -83 -59 -67 -74 -67 -75 -46 -90 25 -17 28 -11 -48 -102
-28 -33 -43 -61 -43 -79 0 -19 -20 -51 -66 -106 -36 -43 -70 -79 -75 -79 -4 0
-10 53 -12 118 l-3 117 -2 -139 -2 -139 -21 19 -22 19 6 543 c2 299 7 546 10
549 8 8 63 -32 129 -94 l56 -53 94 1 c94 0 137 12 146 37 3 9 -4 13 -19 12
-13 -1 -64 -2 -114 -1 l-90 1 -97 81 c-54 45 -98 85 -98 90 0 11 36 -6 45 -21z
m418 0 c24 0 28 -3 17 -10 -8 -5 -32 -10 -52 -10 -30 0 -36 3 -31 16 3 8 12
13 20 10 8 -3 29 -6 46 -6z m225 -55 c3 -3 3 -7 0 -10 -5 -6 -168 -16 -168
-10 0 2 -3 10 -6 18 -5 13 7 15 82 11 48 -2 89 -6 92 -9z m-448 -45 c0 -5 -4
-10 -9 -10 -6 0 -13 5 -16 10 -3 6 1 10 9 10 9 0 16 -4 16 -10z m734 -92 c-4
-75 -16 -1065 -15 -1208 1 -136 3 -157 18 -168 17 -12 18 -7 21 74 2 64 -1 92
-12 109 -23 34 -22 149 0 205 15 36 19 81 21 228 2 100 7 182 11 182 15 0 30
-37 21 -51 -12 -19 -11 -66 2 -90 5 -11 21 -24 34 -29 17 -6 23 -14 19 -25 -7
-18 22 -55 43 -55 21 0 15 -14 -21 -49 -19 -19 -40 -47 -47 -63 -7 -18 -17
-27 -25 -24 -8 3 -18 -4 -24 -14 -6 -11 -9 -20 -6 -20 3 0 -1 -21 -9 -47 -22
-73 -19 -99 18 -139 23 -26 43 -37 73 -41 l42 -5 -24 -57 c-12 -31 -29 -76
-36 -101 -12 -40 -16 -45 -46 -48 -20 -2 -45 4 -64 16 l-30 20 1 363 c2 661
13 1069 30 1069 3 0 6 -15 5 -32z m96 -39 c0 -11 7 -27 15 -35 8 -9 15 -28 15
-44 0 -19 10 -38 27 -54 l26 -25 -36 -21 c-37 -22 -52 -50 -45 -86 2 -13 -3
-19 -17 -19 -17 0 -20 -7 -19 -47 0 -27 -3 -48 -8 -48 -10 0 -10 147 -1 293 5
95 8 107 25 107 12 0 18 -7 18 -21z m153 -279 c-6 -22 -23 -38 -23 -21 0 17
12 41 20 41 5 0 6 -9 3 -20z m-1284 -97 c-1 -26 -3 -30 -6 -15 -4 19 -9 23
-26 18 -12 -3 -52 -11 -89 -16 -263 -39 -475 -240 -525 -500 -20 -104 -38
-132 -29 -43 10 93 12 99 62 201 37 77 61 110 127 177 69 69 98 90 179 129 80
39 113 49 191 59 53 7 99 15 103 20 12 12 14 8 13 -30z m1282 -63 c-2 -3 -6 1
-8 8 -3 6 -9 10 -14 6 -5 -3 -9 -1 -9 5 0 5 5 13 10 16 6 3 11 21 12 38 1 23
3 17 7 -18 4 -27 4 -52 2 -55z m-2475 -42 c7 -91 1 -138 -17 -138 -8 0 -8 4
-2 13 10 12 10 36 -2 162 -4 47 -3 67 4 60 5 -5 13 -49 17 -97z m1784 -10 c0
-11 -13 -4 -57 29 -18 13 -33 29 -33 34 0 6 20 -4 45 -22 25 -18 45 -36 45
-41z m-164 -6 c-45 -45 -48 -26 -4 24 19 22 34 31 36 24 3 -7 -12 -29 -32 -48z
m815 8 l44 -40 -47 25 c-53 30 -79 55 -56 55 9 0 35 -18 59 -40z m69 -20 c6
-22 15 -40 20 -40 6 0 10 3 10 8 0 4 11 21 25 37 22 28 23 28 18 6 -3 -13 -18
-48 -33 -79 -25 -52 -26 -57 -13 -106 7 -28 13 -66 13 -84 0 -34 -34 -102 -50
-102 -14 0 -21 18 -10 25 5 3 10 15 10 27 0 19 -1 19 -24 5 -23 -15 -23 -15
-22 21 1 33 -2 37 -24 37 -18 0 -25 5 -26 20 -1 43 -16 71 -45 84 -34 15 -40
36 -6 24 42 -14 80 -7 103 21 25 28 44 34 44 14 0 -9 3 -9 9 1 6 9 2 30 -10
58 -10 25 -19 51 -19 59 0 27 19 4 30 -36z m-212 22 c2 -7 -3 -12 -12 -12 -9
0 -16 7 -16 16 0 17 22 14 28 -4z m-1311 -44 c14 -18 103 -260 103 -279 0 -9
-14 -28 -31 -42 -34 -28 -39 -27 -144 18 -16 7 -61 26 -100 41 -82 31 -98 48
-91 88 14 70 149 186 217 186 20 0 41 -6 46 -12z m747 -22 c-6 -16 -24 -23
-24 -8 0 10 22 33 27 28 2 -2 1 -11 -3 -20z m-1814 -49 c23 -26 40 -50 37 -53
-8 -9 -87 76 -87 94 0 8 1 13 3 11 2 -2 23 -25 47 -52z m135 13 c-16 -16 -31
-28 -34 -25 -2 3 8 19 24 35 16 16 31 28 34 25 2 -3 -8 -19 -24 -35z m1596
-52 c11 -11 19 -23 19 -26 0 -9 -44 25 -48 36 -6 19 9 14 29 -10z m-128 -29
c-21 -36 -43 -57 -43 -41 0 11 48 72 56 72 3 0 -3 -14 -13 -31z m-1513 -49
c11 -11 28 -20 39 -20 14 0 17 -6 13 -25 -2 -14 -8 -28 -13 -31 -5 -3 -9 -16
-9 -29 0 -24 -55 -74 -67 -61 -13 13 -15 127 -3 156 15 36 14 36 40 10z m117
-6 c-3 -3 -12 -4 -19 -1 -8 3 -5 6 6 6 11 1 17 -2 13 -5z m1303 -78 c0 -16
-80 -109 -88 -102 -4 4 77 114 86 116 1 0 2 -6 2 -14z m1210 -184 c0 -4 -12
-16 -27 -27 -16 -11 -52 -42 -82 -70 -50 -46 -53 -47 -35 -17 35 61 144 147
144 114z m-2712 -66 c12 -11 22 -27 22 -36 0 -9 15 -34 33 -56 37 -44 68 -104
60 -117 -2 -4 -25 23 -49 62 -31 48 -54 72 -74 80 -34 11 -110 70 -110 84 0 9
25 5 67 -9 15 -6 16 -4 6 7 -7 7 -13 17 -13 22 0 10 17 -1 58 -37z m139 -40
c6 -49 -5 -142 -15 -131 -3 3 -7 48 -7 100 0 96 13 114 22 31z m2352 18 c12
-19 21 -43 21 -52 -1 -15 -48 63 -50 81 0 15 9 6 29 -29z m-2686 -50 c25 -8
21 -21 -9 -27 -38 -7 -64 3 -64 24 0 18 21 19 73 3z m2927 -3 c0 -5 -14 -11
-31 -15 -17 -3 -43 -14 -57 -24 -34 -23 -109 -52 -116 -44 -12 11 -5 22 14 22
11 0 19 5 18 12 -3 13 50 34 117 48 56 11 55 11 55 1z m-2677 -93 c15 -11 5
-12 -54 -10 -48 3 -67 7 -58 13 21 13 93 11 112 -3z m1106 -137 c-11 -3 -59
37 -59 51 0 5 16 -4 35 -19 19 -15 30 -30 24 -32z m-1013 32 c3 -10 10 -26 15
-36 5 -9 12 -38 16 -62 5 -41 4 -45 -15 -45 -13 0 -32 -15 -49 -40 -15 -22
-31 -40 -34 -40 -3 0 -11 11 -17 25 -10 22 -18 25 -62 25 -47 0 -50 2 -50 25
0 14 -7 28 -15 31 -28 11 -4 24 47 24 63 0 103 23 126 72 19 41 30 47 38 21z
m1549 -21 c36 -30 70 -78 79 -112 l7 -25 -18 25 c-10 13 -46 53 -81 88 -43 44
-56 61 -40 56 13 -4 37 -18 53 -32z m-594 -90 c-13 -4 -71 35 -71 49 0 5 19
-3 41 -18 23 -15 36 -29 30 -31z m1172 16 c-8 -67 -6 -88 10 -106 10 -11 13
-23 7 -31 -5 -8 -4 -24 3 -38 7 -17 7 -29 -1 -46 -6 -12 -11 -29 -10 -37 1 -8
-8 -36 -20 -62 -21 -44 -22 -50 -8 -76 25 -48 44 -57 115 -57 59 0 66 -2 69
-21 2 -11 -4 -26 -12 -33 -8 -7 -13 -18 -10 -26 7 -18 -14 -29 -30 -16 -21 18
-116 -35 -116 -64 0 -12 -3 -25 -7 -29 -5 -4 -8 -18 -8 -29 0 -15 -10 -27 -32
-36 -28 -12 -33 -20 -33 -49 0 -26 4 -33 18 -30 9 2 19 14 20 27 2 13 12 25
22 28 9 3 23 17 31 31 7 15 24 39 38 54 20 23 22 30 11 43 -11 13 -8 15 24 15
20 0 36 -3 36 -7 -1 -26 -118 -168 -162 -197 -22 -14 -30 -15 -47 -4 -16 10
-23 10 -33 0 -8 -8 -15 -9 -24 -1 -10 8 -22 6 -46 -9 -18 -11 -61 -22 -95 -26
-78 -7 -106 -23 -100 -55 4 -21 2 -22 -23 -17 -22 4 -32 0 -44 -19 -9 -14 -23
-25 -31 -25 -21 0 -19 9 8 30 29 24 15 36 -28 23 -66 -21 -44 4 25 27 88 29
100 37 80 49 -15 10 -6 16 60 36 23 7 24 7 10 -10 -14 -17 -13 -18 15 -11 60
14 121 52 186 116 98 97 163 244 101 228 -15 -4 -17 3 -13 71 2 42 10 85 17
96 20 29 19 184 -1 191 -16 6 -22 64 -6 64 5 0 11 18 15 40 8 54 26 51 19 -2z
m199 -177 c17 -36 27 -66 21 -68 -6 -2 -6 -29 0 -74 8 -63 5 -91 -7 -78 -3 2
-10 45 -17 94 -8 61 -21 108 -40 147 -16 32 -29 63 -29 69 0 25 42 -27 72 -90z
m-2247 -8 c-4 -21 -11 -43 -16 -49 -5 -6 -7 -13 -4 -16 3 -3 -2 -11 -10 -18
-14 -12 -15 -10 -10 16 19 82 27 104 36 104 7 0 9 -13 4 -37z m1606 -96 c-14
-15 -21 -17 -21 -8 0 21 33 56 38 41 3 -7 -5 -22 -17 -33z m588 -27 c1 -13 0
-13 -9 0 -5 8 -9 24 -9 35 l0 20 9 -20 c5 -11 9 -27 9 -35z m175 25 c-4 -8 -1
-15 4 -15 6 0 0 -19 -13 -42 -29 -51 -85 -107 -85 -85 0 8 6 20 14 26 8 7 17
24 21 38 5 23 52 93 61 93 2 0 1 -7 -2 -15z m-2423 -72 c-6 -32 -12 -69 -15
-83 -2 -14 -4 -1 -5 29 -1 49 17 127 27 117 2 -2 -1 -30 -7 -63z m-51 16 c12
-22 19 -46 17 -52 -3 -9 -47 74 -47 89 0 14 13 -2 30 -37z m1545 -9 c-3 -5
-13 -10 -21 -10 -8 0 -12 5 -9 10 3 6 13 10 21 10 8 0 12 -4 9 -10z m759 -67
c3 -7 3 -13 0 -13 -10 0 -64 44 -64 52 0 13 58 -23 64 -39z m-2184 15 c-1 -7
-7 -24 -14 -38 -14 -24 -14 -24 -11 10 2 19 4 36 4 38 3 9 21 0 21 -10z m-97
-98 c-7 -8 -33 32 -33 49 0 9 8 3 19 -14 10 -16 16 -32 14 -35z m1867 -1 c-12
-16 -25 -28 -28 -25 -5 6 36 56 45 56 3 0 -5 -14 -17 -31z m-743 -111 c-2 -24
-4 -5 -4 42 0 47 2 66 4 43 2 -24 2 -62 0 -85z m944 95 c-12 -20 -14 -14 -5
12 4 9 9 14 11 11 3 -2 0 -13 -6 -23z m275 -19 c-25 -18 -31 -12 -16 16 9 17
15 19 23 10 9 -9 7 -15 -7 -26z m-2278 -57 c34 -42 32 -65 -6 -53 -22 7 -52
72 -51 109 0 21 1 21 12 3 7 -10 27 -37 45 -59z m1962 4 c-25 -36 -39 -42 -18
-8 8 12 18 28 22 35 5 7 10 11 13 8 3 -3 -5 -19 -17 -35z m-69 -82 c-13 -11
-26 -17 -29 -14 -7 6 29 34 43 34 6 0 -1 -9 -14 -20z m-64 -50 c-9 -6 -15 -14
-12 -19 6 -10 -54 -45 -62 -37 -2 3 4 8 15 11 11 4 27 18 36 31 9 14 22 25 29
25 6 0 4 -5 -6 -11z m-1646 -9 c21 -12 26 -40 6 -40 -22 0 -51 26 -43 38 9 15
12 15 37 2z m454 -104 c41 -12 44 -14 20 -15 -16 0 -43 6 -60 14 -39 18 -22
18 40 1z m934 -15 c-14 -5 -36 -14 -50 -22 -13 -8 -42 -14 -64 -15 -44 -2
-103 -22 -130 -44 -12 -10 -16 -24 -12 -50 4 -32 1 -38 -29 -58 -25 -16 -39
-19 -56 -12 -13 5 -18 9 -12 9 18 1 74 57 74 74 0 10 -2 17 -5 17 -11 0 -83
-45 -122 -77 -54 -45 -67 -38 -16 8 21 18 38 37 38 41 0 12 26 27 39 22 7 -3
20 3 31 11 19 16 19 16 -2 5 -13 -6 -23 -8 -23 -6 0 9 123 67 173 83 27 8 61
12 76 8 15 -3 38 -1 52 4 13 5 33 10 44 10 15 -1 14 -2 -6 -8z m-764 -23 c38
-12 93 -35 120 -51 67 -39 155 -105 155 -117 0 -5 -24 8 -52 30 -65 49 -165
101 -238 125 -30 10 -64 21 -75 26 -46 18 20 9 90 -13z m1074 -43 c-14 -14
-41 -33 -60 -43 -22 -11 -33 -23 -31 -35 2 -12 -4 -17 -18 -17 -12 0 -19 4
-16 9 4 5 1 11 -6 13 -11 4 19 24 107 74 52 30 55 29 24 -1z m-138 -35 c-17
-17 -31 -35 -31 -40 0 -6 -4 -10 -10 -10 -20 0 -9 26 22 52 45 37 59 35 19 -2z
m-121 -15 c-7 -9 -15 -13 -17 -11 -7 7 7 26 19 26 6 0 6 -6 -2 -15z m-154 -13
c-15 -18 -14 -19 24 -32 55 -18 63 -34 14 -26 -22 3 -65 8 -97 12 -66 7 -64
14 8 42 64 26 72 26 51 4z m154 -22 c0 -5 -2 -10 -4 -10 -3 0 -8 5 -11 10 -3
6 -1 10 4 10 6 0 11 -4 11 -10z m-815 -59 c-6 -6 -25 -6 -45 -1 l-35 8 45 1
c27 1 40 -3 35 -8z m507 -13 c-7 -7 -12 -8 -12 -2 0 14 12 26 19 19 2 -3 -1
-11 -7 -17z m-379 -3 c16 -1 36 -9 45 -18 15 -16 15 -17 -5 -17 -12 0 -25 5
-28 10 -4 7 -12 7 -25 0 -18 -10 -25 -5 -45 29 -6 11 -4 13 11 6 10 -4 32 -8
47 -10z m262 -15 c3 -5 -3 -10 -15 -10 -12 0 -18 5 -15 10 3 6 10 10 15 10 5
0 12 -4 15 -10z"/>
<path d="M2488 3598 c7 -7 12 -21 12 -32 0 -17 2 -18 10 -6 7 12 12 12 22 2 6
-6 16 -12 20 -12 5 0 -7 14 -25 30 -33 29 -64 43 -39 18z"/>
<path d="M2309 3513 l-24 -26 33 23 c33 25 38 30 24 30 -5 0 -19 -12 -33 -27z"/>
<path d="M1554 3405 c0 -49 1 -71 3 -48 2 23 2 64 0 90 -2 26 -3 8 -3 -42z"/>
<path d="M2502 3465 c0 -16 2 -22 5 -12 2 9 2 23 0 30 -3 6 -5 -1 -5 -18z"/>
<path d="M2491 3054 c0 -11 3 -14 6 -6 3 7 2 16 -1 19 -3 4 -6 -2 -5 -13z"/>
<path d="M2492 2963 c1 -40 4 -73 8 -73 6 0 2 116 -5 135 -2 6 -4 -23 -3 -62z"/>
<path d="M2392 2950 c0 -19 2 -27 5 -17 2 9 2 25 0 35 -3 9 -5 1 -5 -18z"/>
<path d="M1444 2865 c-4 -11 -13 -27 -21 -37 -11 -12 -16 -58 -20 -173 -5
-151 -4 -157 16 -172 12 -8 21 -21 21 -29 0 -8 4 -14 9 -14 11 0 21 410 10
430 -6 12 -9 12 -15 -5z"/>
<path d="M2490 2845 c0 -19 4 -35 8 -35 5 0 9 16 10 35 1 19 -3 35 -8 35 -6 0
-10 -16 -10 -35z"/>
<path d="M3336 2753 c-3 -21 -6 -86 -6 -145 0 -105 -1 -108 -22 -109 l-23 0
23 -9 c12 -5 22 -13 22 -19 0 -5 -10 -12 -22 -16 l-23 -8 23 -4 c22 -4 23 -9
21 -76 -1 -40 -6 -78 -12 -84 -5 -7 -6 -13 -1 -13 5 0 9 -116 8 -257 -1 -211
0 -236 7 -138 4 66 7 194 8 285 0 91 3 270 7 398 6 222 4 275 -10 195z"/>
<path d="M2361 2439 c-54 -59 -62 -73 -50 -84 8 -7 43 -38 78 -69 l65 -57 72
72 72 71 -79 69 c-43 38 -81 69 -86 69 -4 0 -37 -32 -72 -71z m153 -16 c20
-18 36 -35 36 -37 0 -3 -17 -7 -37 -9 l-38 -4 43 -1 c23 -1 42 -5 42 -9 -1 -9
-97 -113 -105 -113 -3 0 -5 50 -5 110 0 123 -2 121 64 63z"/>
<path d="M2952 2494 c3 -3 41 -5 83 -5 42 0 80 2 83 5 3 4 -34 6 -83 6 -49 0
-86 -2 -83 -6z"/>
<path d="M3193 2493 c15 -2 37 -2 50 0 12 2 0 4 -28 4 -27 0 -38 -2 -22 -4z"/>
<path d="M1927 2478 c-7 -4 16 -8 51 -8 34 0 62 4 62 9 0 10 -97 9 -113 -1z"/>
<path d="M2088 2483 c18 -2 45 -2 60 0 15 2 0 4 -33 4 -33 0 -45 -2 -27 -4z"/>
<path d="M2698 2483 c7 -3 16 -2 19 1 4 3 -2 6 -13 5 -11 0 -14 -3 -6 -6z"/>
<path d="M2933 2443 c9 -2 25 -2 35 0 9 3 1 5 -18 5 -19 0 -27 -2 -17 -5z"/>
<path d="M3088 2443 c7 -3 16 -2 19 1 4 3 -2 6 -13 5 -11 0 -14 -3 -6 -6z"/>
<path d="M3198 2443 c7 -3 16 -2 19 1 4 3 -2 6 -13 5 -11 0 -14 -3 -6 -6z"/>
<path d="M1436 2290 c-10 -22 -22 -40 -27 -40 -5 0 -9 -25 -9 -55 0 -45 5 -63
30 -97 l30 -41 0 136 c0 76 -1 137 -3 137 -2 0 -11 -18 -21 -40z"/>
<path d="M1768 2283 c6 -2 18 -2 25 0 6 3 1 5 -13 5 -14 0 -19 -2 -12 -5z"/>
<path d="M1863 2283 c9 -2 23 -2 30 0 6 3 -1 5 -18 5 -16 0 -22 -2 -12 -5z"/>
<path d="M2075 2280 c3 -5 24 -10 46 -10 24 0 38 4 34 10 -3 6 -24 10 -46 10
-24 0 -38 -4 -34 -10z"/>
<path d="M2175 2280 c-3 -6 1 -7 9 -4 18 7 21 14 7 14 -6 0 -13 -4 -16 -10z"/>
<path d="M2800 2280 c0 -5 4 -10 9 -10 6 0 13 5 16 10 3 6 -1 10 -9 10 -9 0
-16 -4 -16 -10z"/>
<path d="M1542 1890 c0 -14 2 -19 5 -12 2 6 2 18 0 25 -3 6 -5 1 -5 -13z"/>
<path d="M2491 1814 c0 -11 3 -14 6 -6 3 7 2 16 -1 19 -3 4 -6 -2 -5 -13z"/>
<path d="M2492 1770 c0 -14 2 -19 5 -12 2 6 2 18 0 25 -3 6 -5 1 -5 -13z"/>
<path d="M2492 1700 c0 -19 2 -27 5 -17 2 9 2 25 0 35 -3 9 -5 1 -5 -18z"/>
<path d="M3317 1703 c-4 -3 -7 -16 -6 -27 0 -19 1 -19 10 3 10 24 8 36 -4 24z"/>
<path d="M1590 1615 c0 -5 5 -17 10 -25 5 -8 10 -10 10 -5 0 6 -5 17 -10 25
-5 8 -10 11 -10 5z"/>
<path d="M3261 1553 c-13 -26 -41 -70 -63 -98 l-40 -50 46 50 c44 49 94 131
84 140 -2 2 -15 -17 -27 -42z"/>
<path d="M1610 1561 c0 -5 5 -13 10 -16 6 -3 10 -2 10 4 0 5 -4 13 -10 16 -5
3 -10 2 -10 -4z"/>
<path d="M1670 1466 c0 -2 8 -10 18 -17 15 -13 16 -12 3 4 -13 16 -21 21 -21
13z"/>
<path d="M2492 1410 c0 -19 2 -27 5 -17 2 9 2 25 0 35 -3 9 -5 1 -5 -18z"/>
<path d="M2491 1354 c0 -11 3 -14 6 -6 3 7 2 16 -1 19 -3 4 -6 -2 -5 -13z"/>
<path d="M3135 3780 c3 -5 8 -10 11 -10 2 0 4 5 4 10 0 6 -5 10 -11 10 -5 0
-7 -4 -4 -10z"/>
<path d="M1710 3759 c0 -5 5 -7 10 -4 6 3 10 8 10 11 0 2 -4 4 -10 4 -5 0 -10
-5 -10 -11z"/>
<path d="M1564 3675 c-10 -8 -14 -15 -8 -15 6 0 17 7 24 15 16 19 9 19 -16 0z"/>
<path d="M1239 3393 c-34 -38 -53 -63 -46 -63 2 0 21 20 41 45 41 50 44 61 5
18z"/>
<path d="M3646 3398 c10 -14 21 -24 23 -22 3 3 -6 15 -18 27 l-24 22 19 -27z"/>
<path d="M3961 2850 c0 -8 4 -22 9 -30 12 -18 12 -2 0 25 -6 13 -9 15 -9 5z"/>
<path d="M911 2794 c0 -11 3 -14 6 -6 3 7 2 16 -1 19 -3 4 -6 -2 -5 -13z"/>
<path d="M3981 2774 c0 -11 3 -14 6 -6 3 7 2 16 -1 19 -3 4 -6 -2 -5 -13z"/>
<path d="M861 2214 c0 -11 3 -14 6 -6 3 7 2 16 -1 19 -3 4 -6 -2 -5 -13z"/>
<path d="M872 2135 c0 -16 3 -39 8 -50 l9 -20 -1 20 c0 11 -4 34 -8 50 l-8 30
0 -30z"/>
<path d="M4021 2134 c0 -11 3 -14 6 -6 3 7 2 16 -1 19 -3 4 -6 -2 -5 -13z"/>
<path d="M890 2040 c0 -8 7 -35 15 -60 l15 -45 -6 45 c-7 47 -23 90 -24 60z"/>
<path d="M951 1834 c0 -11 3 -14 6 -6 3 7 2 16 -1 19 -3 4 -6 -2 -5 -13z"/>
<path d="M980 1759 c0 -14 31 -81 36 -76 3 3 -4 22 -15 44 -11 21 -20 35 -21
32z"/>
<path d="M3781 1507 c-13 -21 -12 -21 5 -5 10 10 16 20 13 22 -3 3 -11 -5 -18
-17z"/>
<path d="M3741 1447 c-13 -21 -12 -21 5 -5 10 10 16 20 13 22 -3 3 -11 -5 -18
-17z"/>
<path d="M3667 1350 c-36 -52 -30 -51 12 0 17 22 28 40 24 40 -4 0 -21 -18
-36 -40z"/>
<path d="M1242 1330 c18 -22 37 -40 43 -40 5 0 -9 18 -30 40 -50 51 -55 51
-13 0z"/>
<path d="M1390 1182 c0 -11 59 -57 64 -51 2 2 -12 17 -31 32 -18 16 -33 24
-33 19z"/>
<path d="M1470 1116 c0 -2 8 -10 18 -17 15 -13 16 -12 3 4 -13 16 -21 21 -21
13z"/>
<path d="M1535 1060 c3 -5 11 -10 16 -10 6 0 7 5 4 10 -3 6 -11 10 -16 10 -6
0 -7 -4 -4 -10z"/>
<path d="M1612 1014 c10 -10 20 -15 24 -12 3 4 -5 12 -18 18 -22 12 -22 12 -6
-6z"/>
<path d="M1687 969 c7 -7 15 -10 18 -7 3 3 -2 9 -12 12 -14 6 -15 5 -6 -5z"/>
<path d="M1727 949 c7 -7 15 -10 18 -7 3 3 -2 9 -12 12 -14 6 -15 5 -6 -5z"/>
<path d="M1767 929 c7 -7 15 -10 18 -7 3 3 -2 9 -12 12 -14 6 -15 5 -6 -5z"/>
<path d="M3130 930 c-9 -6 -10 -10 -3 -10 6 0 15 5 18 10 8 12 4 12 -15 0z"/>
<path d="M1850 890 c8 -5 20 -10 25 -10 6 0 3 5 -5 10 -8 5 -19 10 -25 10 -5
0 -3 -5 5 -10z"/>
<path d="M1958 853 c7 -3 16 -2 19 1 4 3 -2 6 -13 5 -11 0 -14 -3 -6 -6z"/>
<path d="M2018 833 c7 -3 16 -2 19 1 4 3 -2 6 -13 5 -11 0 -14 -3 -6 -6z"/>
<path d="M2878 833 c7 -3 16 -2 19 1 4 3 -2 6 -13 5 -11 0 -14 -3 -6 -6z"/>
<path d="M2788 813 c6 -2 18 -2 25 0 6 3 1 5 -13 5 -14 0 -19 -2 -12 -5z"/>
<path d="M2180 800 c8 -5 26 -10 39 -10 32 0 24 6 -19 14 -25 4 -31 3 -20 -4z"/>
<path d="M2695 800 c-28 -7 -28 -8 -5 -9 14 0 32 4 40 9 17 11 8 11 -35 0z"/>
<path d="M2313 783 c9 -2 25 -2 35 0 9 3 1 5 -18 5 -19 0 -27 -2 -17 -5z"/>
<path d="M2530 780 c-11 -7 -5 -8 20 -4 43 8 51 14 19 14 -13 0 -31 -5 -39
-10z"/>
<path d="M2403 773 c9 -2 25 -2 35 0 9 3 1 5 -18 5 -19 0 -27 -2 -17 -5z"/>
<path d="M2468 773 c7 -3 16 -2 19 1 4 3 -2 6 -13 5 -11 0 -14 -3 -6 -6z"/>
<path d="M3724 4188 c-11 -13 -36 -44 -57 -69 l-36 -46 54 -37 c63 -44 86 -43
101 2 5 18 20 39 32 48 12 8 22 22 22 31 0 14 -77 93 -91 93 -3 0 -14 -10 -25
-22z m79 -52 c3 -7 1 -19 -3 -26 -7 -11 -14 -11 -35 -2 -31 14 -41 37 -25 57
10 12 15 12 35 -1 13 -8 26 -21 28 -28z m-57 -51 c21 -21 23 -29 14 -40 -16
-20 -30 -18 -58 5 -19 16 -21 23 -12 40 14 26 26 25 56 -5z"/>
<path d="M1017 4163 c-4 -4 5 -20 20 -36 l28 -29 -34 -29 -35 -29 -26 31 c-21
26 -28 29 -37 18 -16 -20 101 -149 119 -131 9 9 6 18 -15 40 l-27 28 30 22
c37 28 41 28 70 -3 15 -16 27 -22 33 -16 6 6 -11 34 -44 75 -52 62 -68 74 -82
59z"/>
<path d="M3863 4060 c-34 -14 -65 -69 -58 -105 9 -54 74 -91 114 -66 11 7 11
10 0 17 -8 5 -24 7 -35 6 -40 -5 -67 42 -45 77 8 12 18 7 55 -27 25 -23 50
-42 56 -42 17 0 41 58 34 84 -12 48 -73 76 -121 56z m81 -39 c11 -13 15 -27
11 -40 -9 -28 -16 -27 -54 13 -23 24 -29 35 -19 39 26 11 45 7 62 -12z"/>
<path d="M886 3943 c-27 -26 -27 -26 -57 -9 -16 9 -34 14 -40 10 -12 -7 98
-124 117 -124 15 0 84 76 84 93 0 24 -31 57 -54 57 -13 0 -35 -12 -50 -27z
m71 -23 c2 -8 -7 -27 -19 -42 l-23 -28 -25 20 -25 20 29 26 c30 27 59 29 63 4z"/>
<path d="M3960 3861 c-62 -58 -90 -90 -82 -95 7 -4 24 1 39 12 l27 20 28 -30
c25 -27 33 -30 66 -25 47 8 92 55 92 97 0 32 -30 70 -55 70 -8 0 -12 6 -9 14
14 37 -19 17 -106 -63z m128 17 c33 -33 -13 -108 -67 -108 -53 0 -61 51 -17
96 25 24 66 30 84 12z"/>
<path d="M686 3837 l-46 -52 37 -30 c88 -71 88 -72 75 -88 -9 -11 -10 -17 -2
-22 11 -7 39 21 40 38 0 10 -42 53 -84 85 l-29 22 28 30 28 29 54 -45 c52 -42
83 -55 83 -35 0 5 -31 34 -69 65 l-70 56 -45 -53z"/>
<path d="M4127 3742 c-60 -40 -72 -84 -34 -126 26 -29 82 -40 82 -16 0 8 -5
14 -12 13 -7 -2 -24 2 -38 7 -36 14 -33 51 6 84 54 45 107 27 94 -33 -7 -35 9
-50 24 -22 17 32 13 60 -14 86 -29 30 -69 32 -108 7z"/>
<path d="M561 3673 c-25 -31 -36 -66 -27 -89 10 -26 31 -10 28 22 -4 34 28 70
53 60 14 -5 14 -9 -1 -43 -27 -62 -28 -79 -5 -102 12 -12 28 -21 36 -21 23 0
55 37 62 70 3 17 12 30 19 30 8 0 14 4 14 10 0 13 -120 90 -141 90 -10 0 -27
-12 -38 -27z m129 -85 c0 -10 -9 -27 -21 -39 -19 -19 -23 -20 -37 -6 -14 15
-14 20 3 57 17 38 19 39 37 24 10 -10 18 -25 18 -36z"/>
<path d="M4227 3577 c-91 -56 -87 -70 21 -77 l82 -5 -55 -29 c-50 -26 -65 -43
-49 -58 3 -3 41 14 85 39 99 56 95 73 -17 73 -41 0 -74 3 -73 8 0 4 21 21 47
38 43 28 56 46 35 50 -4 1 -38 -16 -76 -39z"/>
<path d="M474 3529 c-3 -6 6 -21 21 -33 l27 -22 -18 -37 -17 -36 -34 20 c-30
19 -34 19 -39 4 -8 -20 -13 -16 75 -60 48 -24 77 -33 83 -27 7 7 -1 16 -23 27
-19 10 -35 19 -37 20 -3 3 26 64 34 74 2 2 20 -4 39 -15 31 -16 37 -17 45 -4
5 8 8 15 7 16 -119 65 -157 82 -163 73z"/>
<path d="M4394 3435 c3 -8 8 -21 11 -28 4 -8 -19 -25 -65 -47 -38 -19 -70 -37
-70 -41 0 -20 24 -17 86 12 64 28 69 29 81 13 7 -10 13 -22 13 -28 0 -6 4 -6
11 1 12 12 -44 133 -62 133 -6 0 -8 -7 -5 -15z"/>
<path d="M360 3310 c-13 -13 -20 -33 -20 -58 0 -51 33 -83 93 -89 39 -5 46 -2
70 27 30 35 33 50 16 83 -29 57 -118 78 -159 37z m108 -26 c26 -18 30 -65 7
-84 -9 -8 -28 -10 -50 -6 -75 14 -86 106 -12 106 18 0 43 -7 55 -16z"/>
<path d="M4403 3263 c-32 -6 -63 -50 -63 -87 0 -36 25 -71 58 -81 32 -9 29 19
-4 33 -21 10 -25 18 -22 49 5 60 31 55 59 -11 13 -31 30 -56 37 -56 20 0 62
47 62 69 0 33 -21 68 -47 80 -24 11 -39 12 -80 4z m81 -39 c20 -19 21 -58 2
-73 -12 -10 -17 -7 -29 16 -28 55 -30 73 -8 73 11 0 27 -7 35 -16z"/>
<path d="M227 3166 c-6 -16 19 -30 28 -16 7 11 -2 30 -15 30 -4 0 -10 -6 -13
-14z"/>
<path d="M293 3143 c-7 -18 -12 -15 79 -46 90 -32 90 -32 86 -11 -2 10 -32 27
-81 44 -65 23 -80 25 -84 13z"/>
<path d="M4543 3086 l6 -35 -75 -22 c-45 -13 -74 -27 -74 -35 0 -19 16 -18 90
8 39 13 65 17 67 11 7 -21 32 -48 38 -42 9 10 -35 149 -47 149 -6 0 -8 -14 -5
-34z"/>
<path d="M255 3050 c-7 -11 -5 -12 80 -38 58 -18 60 -19 58 -51 0 -18 -4 -35
-7 -38 -3 -3 -37 2 -77 11 -68 15 -89 14 -89 -3 0 -8 154 -51 180 -51 5 0 10
5 10 11 0 6 7 36 16 66 15 50 18 54 40 49 17 -5 24 -2 24 8 0 15 -63 32 -68
17 -2 -5 -31 0 -65 10 -70 21 -93 23 -102 9z"/>
<path d="M211 2836 c-24 -28 -25 -89 -3 -116 27 -33 41 -18 19 19 -21 36 -8
85 21 79 13 -2 18 -15 20 -53 4 -55 24 -85 57 -85 33 0 50 27 49 77 0 23 3 43
8 43 4 0 8 6 8 14 0 14 -22 20 -115 32 -40 5 -54 3 -64 -10z m135 -54 c14 -28
8 -58 -13 -66 -25 -10 -33 3 -33 50 0 38 3 45 17 42 10 -2 23 -14 29 -26z"/>
<path d="M4617 2788 c-62 -48 -83 -59 -102 -54 -15 4 -27 16 -31 31 -9 35 -24
31 -24 -5 0 -25 6 -33 33 -45 40 -18 241 -73 246 -68 12 10 -27 30 -97 48
l-77 21 73 54 c39 30 72 58 72 62 0 21 -23 10 -93 -44z"/>
<path d="M100 2628 c0 -11 14 -17 50 -20 28 -3 52 -7 53 -9 2 -2 1 -31 -2 -64
l-6 -59 -52 3 c-42 2 -53 -1 -53 -13 0 -22 4 -23 133 -30 114 -7 117 -7 117
13 0 19 -6 21 -55 21 l-55 0 0 34 c0 18 3 48 6 65 6 30 8 31 60 31 41 0 54 4
54 15 0 12 -13 15 -57 15 -32 0 -88 3 -125 7 -57 5 -68 3 -68 -9z"/>
<path d="M4568 2593 c-60 -3 -78 -7 -78 -18 0 -11 12 -15 40 -15 22 0 40 -4
40 -9 0 -4 -18 -20 -40 -35 -48 -31 -58 -66 -12 -42 15 8 35 23 45 34 17 18
20 18 52 4 19 -9 35 -22 35 -29 0 -14 12 -17 23 -7 12 12 -7 36 -47 57 l-41
22 43 3 c34 3 42 7 42 23 0 10 -6 18 -12 17 -7 -1 -48 -4 -90 -5z"/>
<path d="M4434 2431 c-13 -13 1 -21 36 -21 38 0 52 -12 30 -25 -18 -11 -10
-56 15 -80 34 -35 112 -35 143 -2 24 26 29 66 10 85 -10 10 -10 15 2 22 8 5
12 11 10 13 -6 6 -240 13 -246 8z m200 -42 c30 -24 32 -36 9 -61 -23 -25 -87
-24 -113 2 -11 11 -20 24 -20 29 0 16 52 51 75 51 12 0 34 -9 49 -21z"/>
<path d="M90 2325 c0 -16 43 -21 74 -9 31 12 16 24 -29 24 -33 0 -45 -4 -45
-15z"/>
<path d="M95 2280 c-4 -7 -3 -16 3 -22 14 -14 85 -1 79 15 -5 16 -73 21 -82 7z"/>
<path d="M4499 2229 c-17 -17 -20 -30 -16 -65 2 -25 1 -47 -4 -50 -23 -14 -3
-22 72 -28 98 -9 109 -2 109 65 0 53 -23 90 -44 69 -8 -8 -6 -15 7 -24 29 -22
19 -86 -14 -86 -16 0 -19 8 -19 45 0 35 -6 52 -25 70 -30 30 -39 31 -66 4z
m59 -67 c3 -40 2 -43 -20 -40 -29 4 -47 50 -28 73 24 28 45 14 48 -33z"/>
<path d="M174 2174 c3 -26 6 -60 6 -75 0 -17 5 -29 13 -29 9 0 12 9 9 29 -3
25 0 29 28 35 18 3 47 6 65 6 44 0 65 9 59 25 -4 9 -17 12 -37 10 -119 -15
-115 -15 -122 16 -11 49 -28 34 -21 -17z"/>
<path d="M190 2033 c0 -11 30 -22 109 -38 l33 -7 -58 -33 c-33 -17 -60 -39
-62 -48 -5 -26 12 -21 87 28 76 49 120 58 128 25 5 -21 27 -27 37 -11 3 5 -2
19 -12 31 -14 17 -43 26 -140 44 -94 17 -122 19 -122 9z"/>
<path d="M4467 2023 c-16 -15 -3 -22 66 -33 39 -6 80 -14 90 -17 14 -4 18 0
15 13 -2 14 -19 21 -73 31 -85 14 -90 15 -98 6z"/>
<path d="M4680 2005 c0 -8 9 -15 20 -15 11 0 20 7 20 15 0 8 -9 15 -20 15 -11
0 -20 -7 -20 -15z"/>
<path d="M4670 1944 c0 -9 7 -14 17 -12 25 5 28 28 4 28 -12 0 -21 -6 -21 -16z"/>
<path d="M4442 1928 c3 -7 20 -17 39 -22 19 -5 35 -10 36 -11 1 -1 -2 -18 -8
-39 -10 -35 -12 -37 -47 -34 -63 5 -47 -16 30 -39 88 -26 98 -27 98 -9 0 15
-21 26 -51 26 -22 0 -22 1 -8 50 11 37 12 38 52 32 60 -8 43 20 -20 34 -109
24 -125 26 -121 12z"/>
<path d="M234 1853 c-18 -6 18 -137 39 -141 13 -3 15 3 10 31 -5 32 -3 34 28
41 76 15 109 27 109 41 0 18 -2 18 -70 0 -74 -20 -90 -19 -90 4 0 22 -9 30
-26 24z"/>
<path d="M4396 1752 c-14 -13 -3 -38 39 -88 25 -28 45 -55 45 -58 0 -3 -25 4
-55 15 -52 19 -75 19 -75 -1 0 -4 36 -20 81 -35 108 -36 116 -26 49 59 -28 36
-50 66 -47 66 2 0 30 -9 62 -20 38 -13 62 -17 69 -10 6 6 1 13 -15 19 -13 5
-52 21 -86 34 -34 14 -64 22 -67 19z"/>
<path d="M365 1694 c-103 -43 -102 -67 3 -80 29 -3 54 -10 57 -14 3 -5 -17
-16 -45 -25 -55 -18 -70 -32 -45 -41 18 -7 165 43 165 56 0 20 -33 39 -82 45
-82 11 -86 19 -19 40 54 16 76 36 54 48 -5 2 -44 -11 -88 -29z"/>
<path d="M470 1474 c-36 -18 -68 -33 -71 -34 -4 0 -10 12 -13 26 -6 22 -34 30
-29 8 6 -28 54 -124 63 -124 13 0 13 16 1 39 -9 15 0 23 60 51 62 31 82 51 62
63 -5 3 -37 -10 -73 -29z"/>
<path d="M4425 1400 c-3 -5 11 -20 32 -34 33 -23 38 -24 46 -10 7 12 4 20 -9
28 -30 17 -63 25 -69 16z"/>
<path d="M532 1378 c3 -7 18 -16 36 -20 34 -9 48 -37 33 -66 -13 -25 -74 -54
-95 -46 -26 10 -38 41 -26 65 13 24 8 34 -15 26 -22 -9 -19 -69 5 -94 28 -31
55 -36 94 -18 72 34 91 92 46 140 -25 26 -85 36 -78 13z"/>
<path d="M4221 1356 c-9 -11 -1 -20 40 -46 33 -20 48 -35 42 -41 -6 -6 -42
-13 -81 -16 -49 -4 -73 -10 -77 -20 -4 -13 7 -15 73 -12 l77 4 23 -45 c13 -25
20 -53 17 -62 -8 -20 14 -35 26 -17 15 24 10 53 -16 91 -26 39 -32 68 -14 68
6 0 30 -11 53 -25 39 -23 56 -24 56 -5 0 4 -21 20 -47 37 -27 16 -73 46 -105
66 -46 30 -58 34 -67 23z"/>
<path d="M4400 1343 c0 -8 62 -53 72 -53 3 0 8 7 12 15 3 10 -5 20 -24 30 -31
16 -60 20 -60 8z"/>
<path d="M607 1194 c-37 -26 -67 -50 -67 -55 0 -17 18 -17 45 1 l29 19 23 -35
24 -34 -27 -23 c-15 -13 -25 -29 -23 -36 6 -16 149 85 149 105 0 13 -7 11 -35
-6 -38 -24 -54 -19 -77 23 -8 17 -5 24 21 44 28 22 34 43 12 43 -4 0 -37 -21
-74 -46z"/>
<path d="M4106 1182 c-3 -5 6 -39 20 -76 14 -38 23 -70 21 -72 -2 -3 -24 12
-48 31 -49 38 -59 42 -59 20 0 -20 131 -118 143 -106 6 6 0 38 -16 85 l-26 76
52 -39 c47 -37 67 -43 67 -21 0 11 -124 110 -138 110 -6 0 -13 -4 -16 -8z"/>
<path d="M733 1031 c-55 -50 -77 -81 -57 -81 4 0 27 17 52 38 25 20 56 46 69
57 21 17 23 23 12 32 -11 8 -28 -2 -76 -46z"/>
<path d="M3980 1018 c0 -15 113 -118 129 -118 29 0 14 24 -48 74 -72 59 -81
64 -81 44z"/>
<path d="M3886 918 c-20 -23 -36 -49 -36 -58 0 -20 31 -50 51 -50 8 0 19 -10
24 -22 17 -39 55 -34 100 12 l39 40 -59 60 c-33 33 -65 60 -71 60 -7 0 -29
-19 -48 -42z m74 -30 c0 -14 -39 -48 -55 -48 -26 0 -28 28 -3 59 21 26 25 27
41 13 9 -8 17 -19 17 -24z m60 -49 c0 -15 -51 -51 -64 -46 -21 8 -20 19 5 50
17 23 23 25 40 14 10 -6 19 -14 19 -18z"/>
<path d="M615 940 c-3 -5 -2 -16 2 -24 11 -20 36 -4 27 17 -7 19 -20 22 -29 7z"/>
<path d="M845 890 c-72 -72 -67 -87 21 -71 90 17 92 15 45 -33 -29 -29 -39
-46 -31 -51 6 -4 23 4 38 17 15 14 44 40 65 58 30 27 35 36 25 46 -9 10 -24
11 -53 5 -22 -5 -58 -12 -80 -16 l-40 -6 48 48 c41 43 50 63 28 63 -4 0 -33
-27 -66 -60z"/>
<path d="M4164 899 c-8 -14 18 -31 30 -19 9 9 0 30 -14 30 -5 0 -12 -5 -16
-11z"/>
<path d="M4124 849 c-3 -6 -1 -16 5 -22 9 -9 14 -8 21 3 9 15 4 30 -10 30 -5
0 -12 -5 -16 -11z"/>
<path d="M1007 759 c-26 -32 -50 -66 -53 -74 -10 -25 18 -27 80 -5 33 11 63
20 69 20 5 0 -7 -20 -27 -44 -20 -24 -36 -49 -36 -55 0 -30 24 -14 74 50 72
94 65 108 -36 73 -39 -13 -73 -22 -75 -21 -2 2 15 24 37 49 31 36 37 48 27 56
-9 8 -24 -4 -60 -49z"/>
<path d="M3753 801 c-34 -21 -48 -50 -38 -81 10 -31 37 -25 34 8 -4 37 7 52
41 52 29 0 80 -47 80 -74 0 -23 -37 -48 -66 -44 -36 4 -43 -18 -10 -33 29 -14
64 4 91 45 26 39 -4 104 -62 134 -29 16 -33 15 -70 -7z"/>
<path d="M767 773 c-13 -12 -7 -22 16 -25 14 -2 23 -11 25 -25 4 -26 17 -30
25 -9 11 29 -46 80 -66 59z"/>
<path d="M3618 695 c-47 -31 -61 -56 -49 -88 14 -36 43 -41 92 -16 l43 21 22
-28 c19 -23 24 -25 29 -12 7 18 -73 148 -90 147 -5 0 -27 -11 -47 -24z m56
-34 c16 -18 16 -20 -12 -40 -36 -25 -45 -26 -62 -6 -9 11 -7 19 14 40 30 30
38 31 60 6z"/>
<path d="M1194 673 c-6 -10 -28 -44 -48 -76 -32 -49 -34 -58 -20 -64 15 -5 21
-1 43 36 9 15 34 9 65 -14 18 -13 18 -15 -3 -43 -18 -26 -19 -42 -1 -42 4 0
28 32 55 71 37 55 45 73 36 82 -10 9 -14 9 -21 -3 -30 -52 -34 -54 -68 -34
-37 22 -38 27 -12 64 11 15 17 30 13 34 -11 11 -28 6 -39 -11z"/>
<path d="M3490 613 c0 -5 9 -23 20 -41 11 -18 20 -35 20 -37 0 -11 -27 -4 -67
17 -30 16 -46 19 -53 12 -7 -7 5 -18 41 -34 l51 -24 -4 -48 c-4 -36 -2 -48 8
-48 10 0 14 15 14 49 0 28 4 52 9 55 5 3 19 -10 31 -30 16 -28 24 -34 33 -25
9 9 7 18 -6 39 -9 15 -30 48 -45 74 -23 42 -52 64 -52 41z"/>
<path d="M1336 518 c-48 -86 -52 -98 -32 -98 9 0 24 16 33 35 13 28 21 34 37
29 41 -12 52 -31 38 -67 -18 -45 -18 -49 -6 -54 6 -2 19 13 29 33 23 48 11 83
-33 104 -30 15 -31 17 -18 35 20 26 20 45 1 45 -7 0 -30 -28 -49 -62z"/>
<path d="M3363 542 c-7 -4 -16 -44 -21 -87 l-8 -80 -29 58 c-16 31 -35 57 -42
57 -20 0 -16 -13 24 -95 50 -100 65 -97 78 15 l10 85 28 -62 c26 -59 47 -81
47 -49 0 12 -68 166 -73 166 -1 0 -7 -4 -14 -8z"/>
<path d="M1500 420 c-45 -90 -45 -90 -25 -90 14 0 85 136 85 161 0 28 -25 -1
-60 -71z"/>
<path d="M1603 453 c-3 -10 -18 -48 -34 -85 -24 -58 -25 -67 -12 -72 18 -7 16
-10 32 32 8 17 15 32 17 32 2 0 19 -8 39 -17 28 -14 34 -21 29 -37 -11 -32
-10 -48 1 -53 10 -3 70 145 67 164 0 4 -7 9 -15 11 -10 2 -17 -9 -21 -33 -8
-38 -8 -38 -73 -14 -21 8 -22 10 -8 43 19 44 19 46 0 46 -9 0 -18 -8 -22 -17z"/>
<path d="M3171 438 c-6 -13 -15 -49 -21 -80 -6 -32 -13 -58 -15 -58 -2 0 -11
25 -21 55 -18 57 -27 70 -44 60 -8 -5 41 -160 55 -174 9 -8 35 22 35 40 0 10
5 42 11 71 l12 53 29 -64 c21 -48 31 -62 40 -53 8 8 4 31 -19 89 -32 83 -47
98 -62 61z"/>
<path d="M1790 364 c27 -61 26 -69 -15 -100 -25 -19 -33 -30 -26 -37 8 -8 18
-4 34 11 32 30 46 28 53 -7 6 -27 30 -48 41 -37 3 3 -3 25 -12 50 l-18 46 44
40 c37 33 41 39 23 40 -11 0 -29 -9 -39 -20 -26 -29 -42 -25 -55 14 -9 29 -26
46 -45 46 -3 0 5 -21 15 -46z"/>
<path d="M2890 363 c0 -5 7 -35 15 -68 21 -89 20 -92 -22 -97 -21 -3 -39 -4
-40 -3 -2 1 -9 34 -16 73 -15 77 -22 91 -37 76 -8 -8 -5 -28 25 -160 5 -21 7
-21 65 -9 34 7 64 15 67 19 12 11 -29 176 -43 176 -8 0 -14 -3 -14 -7z"/>
<path d="M1957 332 c-10 -10 -17 -22 -17 -25 0 -13 31 -7 46 8 23 22 51 18 70
-10 29 -44 14 -55 -53 -39 -75 18 -73 18 -73 -8 0 -42 11 -64 40 -81 41 -25
68 -21 101 14 60 65 25 159 -59 159 -25 0 -45 -7 -55 -18z m63 -92 c8 0 21 -4
29 -9 12 -8 12 -12 2 -25 -19 -23 -68 -20 -81 3 -16 32 -12 44 13 37 12 -3 29
-6 37 -6z"/>
<path d="M2608 300 c-27 -28 -30 -36 -25 -73 10 -76 84 -111 140 -67 33 26 42
69 23 113 -26 64 -88 76 -138 27z m92 -10 c13 -13 20 -33 20 -60 0 -73 -75
-91 -100 -24 -14 36 -13 48 11 78 25 31 42 33 69 6z"/>
<path d="M2186 288 c-3 -18 -7 -51 -8 -73 -3 -37 -5 -40 -35 -43 -33 -3 -45
-19 -20 -27 6 -2 40 -6 75 -10 51 -5 62 -3 62 9 0 9 -11 16 -27 18 -26 3 -28
6 -25 43 1 22 5 57 8 78 5 29 2 37 -10 37 -9 0 -17 -12 -20 -32z"/>
<path d="M2310 266 c0 -24 -3 -64 -6 -90 -5 -37 -4 -46 8 -46 11 0 17 16 22
61 10 96 8 119 -9 119 -11 0 -15 -12 -15 -44z"/>
<path d="M2390 220 l0 -90 70 0 70 0 0 75 c0 58 4 77 15 81 25 10 17 26 -12
22 -27 -3 -28 -5 -33 -78 -3 -41 -8 -74 -12 -72 -5 1 -24 2 -43 2 l-35 0 0 75
c0 43 -4 75 -10 75 -6 0 -10 -37 -10 -90z"/>
<path d="M1442 284 c4 -21 22 -23 26 -1 2 10 -3 17 -13 17 -10 0 -15 -6 -13
-16z"/>
<path d="M3183 234 c-7 -3 -13 -15 -13 -27 1 -21 1 -21 15 -3 11 14 22 17 45
12 23 -4 30 -2 28 7 -5 13 -54 20 -75 11z"/>
<path d="M2300 80 c0 -13 5 -20 13 -17 6 2 12 10 12 17 0 7 -6 15 -12 18 -8 2
-13 -5 -13 -18z"/>
</g>
</svg>
